<svg id="Layer_1" data-name="Layer 1" xmlns="http://www.w3.org/2000/svg" xmlns:xlink="http://www.w3.org/1999/xlink" width="550" height="480" viewBox="0 0 550 480"><defs><style>.cls-1{fill:#999;opacity:0.2;}.cls-2{fill:#b3b3b3;}.cls-3{fill:#ccc;}.cls-4{fill:#ffbfcf;}.cls-5{fill:#001300;}.cls-6{fill:#fff;}.cls-7{fill:gray;}.cls-8{fill:url(#radial-gradient);}.cls-9{fill:#f61300;}</style><radialGradient id="radial-gradient" cx="-2834.57" cy="50.84" r="33.59" gradientTransform="matrix(0.69, 0.1, -0.26, 0.85, 2004.14, 520.64)" gradientUnits="userSpaceOnUse"><stop offset="0" stop-color="#ff7fad"/><stop offset="1" stop-color="#ffbfcd"/></radialGradient></defs><path class="cls-1" d="M376.55,465.07c31-11.71,64.12-35.9,63.25-45.1-1.09-11.55-54.21,18.78-134,11.45-17.6-1.62-39.48-5.34-73.87-2.69C213.8,430.12,176.7,433,175.52,441c-1.73,11.87,75.83,27.24,133.34,31.68C331.65,474.45,351.57,474.51,376.55,465.07Z"/><path class="cls-2" d="M177.83,317.34a208,208,0,0,1-30.51-21.29l-2.27-1.94c-79.31-68.74-91.36-94.05-91.36-94.05A38.52,38.52,0,0,1,53,192c.31-12.44.57-22.7,17.76-15.14,25.77,11.34,94.88,65.07,134.75,108.25,42.62,46.16,25.62,51.88,23.42,52.47C228.89,337.57,217.73,340.63,177.83,317.34Z"/><path class="cls-3" d="M39.81,265c97.57-73.34,99.29-119,174.43-134.87,32.33-6.82,103.56-19.84,163.6,14.59C427.91,173.45,435,219.05,442,263.37c7.57,48.42,17.38,111.17-36.47,147.25C388.05,422.3,330.32,422.11,214.13,421c-13.07-.13-40.16-.65-69.11-13.34-11.77-5.16-19.9-8.76-26.66-15.58-32.51-32.82,15-91.08-9.78-110.22C87.25,265.37,31.31,292.61,25.76,283,22.77,277.8,37.3,266.91,39.81,265Z"/><path class="cls-2" d="M357.54,131c-10.5-23,30.68-80.41,88.91-80.23,43,.14,86.51,31.65,86.55,68.32,0,49.12-77.89,79.14-108.11,67-10.31-4.13-10-11.14-33.67-30C368.58,138.15,361.11,138.83,357.54,131Z"/><path class="cls-4" d="M380.84,132.59c-6.92-15.24,20.22-53.19,58.61-53.07,28.36.09,57,20.94,57.05,45.2,0,32.49-51.34,52.35-71.26,44.35-6.8-2.73-6.62-7.38-22.2-19.83C388.12,137.32,383.19,137.77,380.84,132.59Z"/><path class="cls-2" d="M206.88,68.63C210.62,34.09,247.34.31,293.48.39c52.7.1,79.28,44.33,86.54,68.32,6.6,21.81,5.72,54.9-14.06,64.69-11.51,5.69-19.31-1.52-51.93-4.82-47.47-4.8-60.4,7.49-80-2.43C212.14,115.08,204.79,87.91,206.88,68.63Z"/><path class="cls-4" d="M239,75.1C241.5,47,265.52,19.49,295.71,19.56c34.49.08,51.87,36.07,56.62,55.59,4.32,17.75,3.74,44.68-9.2,52.64-7.54,4.64-12.64-1.23-34-3.91-31.06-3.91-39.52,6.09-52.35-2C242.48,112.9,237.68,90.79,239,75.1Z"/><path class="cls-5" d="M182.87,324.77c.18,0,3.32,14,1.9,14.38-1.84.45-16.77-20.93-8.41-39.53a25.8,25.8,0,0,1,7-9.58c10.59-9,25.25-6.71,46.07-7.17,39-.87,49.12-10.26,56.39-3.57,10.56,9.72-3,33.51-9.84,45.52-9.78,17.16-22.29,39.11-46.58,41.9-14.11,1.62-31-3.35-39.05-13.19C180.63,341.61,182.68,324.79,182.87,324.77Z"/><path class="cls-6" d="M212.86,284.06c5.89-4.48,11.42-.78,28.08-2.38,17.74-1.71,23-7,29.47-3.58,7.8,4.14,7.1,15.47,7,16.77a20.61,20.61,0,0,1-9.84,16.77c-6.67,4-17.26,5.58-22.72,1.58-6.17-4.53-3.62-14.61-5.72-14.79s-2.05,9.34-9.67,13.79c-4.53,2.65-11.75,3.5-16.63.59s-5.29-8.24-5.61-12C207.05,298.51,206.25,289.1,212.86,284.06Z"/><path class="cls-4" d="M267.58,340.39c-7.12,10.09-13.55,19.19-26.68,23.95-4.23,1.53-16.94,6.14-23.86,1.18-7.68-5.5-3.1-19.14,0-25.15a37.67,37.67,0,0,1,25.28-19.16c11.77-2.51,28-.75,30.87,6C274.55,330.4,272.26,333.77,267.58,340.39Z"/><path class="cls-7" d="M330.44,419.63c5-3.07,11-.73,27-2.1,17-1.46,21.3-5.07,28.18-2.91a13.56,13.56,0,0,1,9.55,10.94c.19,1.26,1.14,7.46-6.88,11.26-5.87,2.78-16,4-21.92,1.47-6.75-2.88-5.89-9.58-8-9.66s-.49,6.2-7.21,9.29a24,24,0,0,1-16.12.7c-5.19-1.82-6.5-5.35-7.41-7.81C327.09,429.28,324.8,423.08,330.44,419.63Z"/><path class="cls-7" d="M129.19,386.93c7.84-.79,9.87,5,24.59,11.81,15.68,7.3,23.55,5.53,26.54,11.53,3.59,7.21-4.61,16.14-5.55,17.16-1.38,1.5-8.16,8.88-19.34,8.9-8.17,0-17.89-3.89-19.66-9.85-2-6.73,6.87-13.72,5.27-14.9s-8,6.63-17.2,6.54c-5.49-.06-12-2.9-14-7.67s1.22-9.34,3.47-12.55C114.71,395.9,120.38,387.81,129.19,386.93Z"/><path class="cls-7" d="M70.91,175.81c-.24,4.95-4.27,4.08-10.28,10.36-6.39,6.7-6,12-10.26,11.64-5.17-.48-10.33-8.61-10.93-9.54-.86-1.37-5.13-8.09-4.06-14.76.78-4.88,4.33-9.25,8.48-8.15,4.69,1.25,8.5,9.08,9.44,8.56s-3.66-7.16-2.7-12.63c.57-3.26,3.09-6.09,6.48-5.57s6.12,4.12,8,6.63C66.32,163.91,71.17,170.23,70.91,175.81Z"/><path class="cls-2" d="M448,282.27c-3.14.49-9.61,1.51-13.05-1.37a4.78,4.78,0,0,1-.55-.52c-18-19.23-3.13-39.56-3.13-39.56,2-2.21,5-5.29,8.66-8.89,15.15-14.81,27.65-27,40.26-31.45,18.91-6.63,41.93,2.91,40.75,22.68-1.25,21.14-29.37,41-32.84,43.36C488.14,266.52,470.5,278.72,448,282.27Z"/><path class="cls-7" d="M522.66,213.09c-5.72.59-5.48-3-13.81-7-8.88-4.35-14.91-3.13-15.27-6.84-.43-4.45,7.9-10.13,8.85-10.78,1.4-1,8.29-5.64,16.13-5.81,5.73-.11,11.41,2.2,10.93,5.89-.54,4.17-8.78,8.65-8,9.36s7.5-4.24,13.94-4.31c3.84,0,7.56,1.65,7.6,4.6S539.48,204,537,206C535.41,207.3,529.09,212.42,522.66,213.09Z"/><ellipse class="cls-8" cx="30.08" cy="267.79" rx="29.13" ry="20.61" transform="translate(-14.4 2.01) rotate(-3.09)"/><path class="cls-9" d="M214.67,217.62v0h0l-.29-.2.11.16c-26-7.77-41-24.61-38.77-38.08,1.4-8.51,10.3-19.47,21.13-18.6a19.49,19.49,0,0,1,17.86,19.28,26.19,26.19,0,0,0-.33,3.36,19.41,19.41,0,0,0,.33-3.36c1.67-10.29,9.11-18,17.6-19.27,12.1-1.79,23.3,10,24.22,19.63C258.41,200.59,216.66,220,214.67,217.62Z"/><path class="cls-9" d="M214.7,180.16a19.41,19.41,0,0,1-.33,3.36A26.19,26.19,0,0,1,214.7,180.16Z"/><path class="cls-9" d="M214.67,217.62h0l-.08.09-.09-.14-.11-.16.29.2S214.67,217.61,214.67,217.62Z"/><path class="cls-6" d="M188.11,181.48a3.47,3.47,0,0,1-5.89-1.28c-1.27-4.4,3.11-7.83,5.95-8.57,3.42-.9,6.62,1.66,1.13,4.87C186.87,177.92,189.44,180,188.11,181.48Z"/><path class="cls-9" d="M326.8,218.38v0h0l-.29-.21.11.16c-26-7.77-41-24.6-38.77-38.07,1.4-8.52,10.3-19.47,21.13-18.61a19.49,19.49,0,0,1,17.86,19.28,26.37,26.37,0,0,0-.33,3.36,18.39,18.39,0,0,0,.33-3.36c1.67-10.29,9.11-18,17.6-19.26,12.1-1.79,23.3,10,24.22,19.62C370.54,201.35,328.79,220.75,326.8,218.38Z"/><path class="cls-9" d="M326.83,180.92a18.39,18.39,0,0,1-.33,3.36A26.37,26.37,0,0,1,326.83,180.92Z"/><path class="cls-9" d="M326.8,218.38h0l-.08.1-.09-.15-.11-.16.29.21Z"/><path class="cls-6" d="M300.24,182.25a3.47,3.47,0,0,1-5.89-1.29c-1.27-4.39,3.11-7.83,5.95-8.57,3.42-.89,6.62,1.66,1.13,4.88C299,178.69,301.57,180.75,300.24,182.25Z"/></svg>