<svg id="Layer_1" data-name="Layer 1" xmlns="http://www.w3.org/2000/svg" width="80" height="60" viewBox="0 0 80 60"><defs><style>.cls-1{fill:#f61300;}.cls-2{fill:#fff;}</style></defs><path class="cls-1" d="M38.78,58.47v0h0l-.26-.21.09.16C15.06,50.62,1.54,33.73,3.54,20.2,4.8,11.65,12.84.65,22.64,1.52c9,.8,16.22,9.37,16.15,19.34a31,31,0,0,0-.3,3.38,19.56,19.56,0,0,0,.3-3.38C40.3,10.53,47,2.79,54.7,1.52c10.94-1.81,21.07,10,21.9,19.69C78.32,41.35,40.57,60.85,38.78,58.47Z"/><path class="cls-1" d="M38.79,20.86a19.56,19.56,0,0,1-.3,3.38A31,31,0,0,1,38.79,20.86Z"/><path class="cls-1" d="M38.78,58.47h0l-.07.1-.09-.15-.09-.16.26.21Z"/><path class="cls-2" d="M14.75,22.21a3,3,0,0,1-5.33-1.29c-1.15-4.41,2.81-7.86,5.38-8.61,3.1-.9,6,1.67,1,4.89C13.63,18.63,16,20.71,14.75,22.21Z"/></svg>