<svg id="Layer_1" data-name="Layer 1" xmlns="http://www.w3.org/2000/svg" width="1600" height="410" viewBox="0 0 1600 410"><defs><style>.cls-1{fill:#ffdb6a;}.cls-2{fill:#fff;}.cls-3{fill:#ffb64a;}</style></defs><path class="cls-1" d="M290,335.18c-5.09-5.71-14.36.07-26.06-2.43-10.72-2.29-21.81-11.19-25.07-21.64-2.29-7.32,0-13,2-18.63a85.26,85.26,0,0,0,14.93.08c24.12-1.91,42.92-12.93,42-24.62s-21.23-19.61-45.34-17.69c-12.45,1-23.47,4.4-31.1,9.07-4.43,2.73-7.71,5.87-9.46,9.21a45.53,45.53,0,0,0-1.41,4.63c-6.12,24.84.52,75.7,28.24,87,19.81,8.06,51.14-3.81,53.52-16.31A10.59,10.59,0,0,0,290,335.18Zm-50.55-67c10.18-10.31,23.91-6.65,28.9-1.72,6,5.95,2.73,17.32-11.6,10.84-6.33-2.87-9,6.3-14.35,6C236,282.84,233,274.68,239.49,268.15Zm-109-177c10.18-10.31,23.91-6.65,28.9-1.72,6,5.95,2.73,17.32-11.6,10.84-6.33-2.87-9,6.3-14.35,6C127,105.84,124,97.68,130.49,91.15Z"/><path class="cls-1" d="M492,329.18c-5.09-5.71-14.36.07-26.06-2.43-10.72-2.29-21.81-11.19-25.07-21.64-2.29-7.32,0-13,2-18.63a85.26,85.26,0,0,0,14.93.08c24.12-1.91,42.92-12.93,42-24.62s-21.23-19.61-45.34-17.69c-12.45,1-23.47,4.4-31.1,9.07-4.43,2.73-7.71,5.87-9.46,9.21a45.53,45.53,0,0,0-1.41,4.63c-6.12,24.84.52,75.7,28.24,87,19.81,8.06,51.14-3.81,53.52-16.31A10.59,10.59,0,0,0,492,329.18Zm-50.55-67c10.18-10.31,23.91-6.65,28.9-1.72,6,5.95,2.73,17.32-11.6,10.84-6.33-2.87-9,6.3-14.35,6C438,276.84,435,268.68,441.49,262.15Z"/><path class="cls-1" d="M1311,367.18c-5.09-5.71-14.36.07-26.06-2.43-10.72-2.29-21.81-11.19-25.07-21.64-2.29-7.32,0-13,2-18.63a85.26,85.26,0,0,0,14.93.08c24.12-1.91,42.92-12.93,42-24.62s-21.23-19.61-45.34-17.69c-12.45,1-23.47,4.4-31.1,9.07-4.43,2.73-7.71,5.87-9.46,9.21a45.53,45.53,0,0,0-1.41,4.63c-6.12,24.84.52,75.7,28.24,87,19.81,8.06,51.14-3.81,53.52-16.31A10.59,10.59,0,0,0,1311,367.18Zm-50.55-67c10.18-10.31,23.91-6.65,28.9-1.72,6,5.95,2.73,17.32-11.6,10.84-6.33-2.87-9,6.3-14.35,6C1257,314.84,1254,306.68,1260.49,300.15Z"/><path class="cls-1" d="M1409,367.18c-5.09-5.71-14.36.07-26.06-2.43-10.72-2.29-21.81-11.19-25.07-21.64-2.29-7.32,0-13,2-18.63a85.26,85.26,0,0,0,14.93.08c24.12-1.91,42.92-12.93,42-24.62s-21.23-19.61-45.34-17.69c-12.45,1-23.47,4.4-31.1,9.07-4.43,2.73-7.71,5.87-9.46,9.21a45.53,45.53,0,0,0-1.41,4.63c-6.12,24.84.52,75.7,28.24,87,19.81,8.06,51.14-3.81,53.52-16.31A10.59,10.59,0,0,0,1409,367.18Zm-50.55-67c10.18-10.31,23.91-6.65,28.9-1.72,6,5.95,2.73,17.32-11.6,10.84-6.33-2.87-9,6.3-14.35,6C1355,314.84,1352,306.68,1358.49,300.15Z"/><path class="cls-1" d="M1573,367.18c-5.09-5.71-14.36.07-26.06-2.43-10.72-2.29-21.81-11.19-25.07-21.64-2.29-7.32,0-13,2-18.63a85.26,85.26,0,0,0,14.93.08c24.12-1.91,42.92-12.93,42-24.62s-21.23-19.61-45.34-17.69c-12.45,1-23.47,4.4-31.1,9.07-4.43,2.73-7.71,5.87-9.46,9.21a45.53,45.53,0,0,0-1.41,4.63c-6.12,24.84.52,75.7,28.24,87,19.81,8.06,51.14-3.81,53.52-16.31A10.59,10.59,0,0,0,1573,367.18Zm-50.55-67c10.18-10.31,23.91-6.65,28.9-1.72,6,5.95,2.73,17.32-11.6,10.84-6.33-2.87-9,6.3-14.35,6C1519,314.84,1516,306.68,1522.49,300.15Z"/><path class="cls-1" d="M398.45,319.71c6.43,10.18-13.86,46.91-41.52,48.64-22,1.38-37.35-20.13-39.29-22.92-21.23-30.7-9.85-82.3,17.16-95.62,8.81-4.35,21.41-5.68,31.65-.1,14.37,7.83,20.67,27.46,16,32-5.22,5.07-20.61-12-33-6-11.65,5.66-16.18,29.56-7,45,1,1.7,8,13.44,17,13,10.29-.5,12.91-16.37,26-18C389.52,315.2,396,315.9,398.45,319.71Z"/><path class="cls-1" d="M1099.87,298.58c4,36.52-60.06,112.68-111.13,82.17-40.66-24.29-52.17-103.66-53.56-113.89C919.94,154.4,979,25.53,1037.63,23c19.1-.82,42.79,11.57,57,40.15,20,40.13,16.67,102.72,4.85,109.38-13.18,7.44-28.08-59.76-54.91-58.82-25.19.87-51.24,61.51-46.27,116.14.54,6,4.32,47.55,20.86,57.85,18.9,11.75,35.5-29,60.27-16.83C1087.18,274.65,1098.39,284.92,1099.87,298.58Z"/><path class="cls-1" d="M195.31,321.84C193,336.49,170.42,353.57,159.48,348c-2.47-1.25-4.29-3.69-8.37-21.27-3.89-16.72-5.83-25.08-7-39-2.17-25.65-3.25-38.47,2.69-46.21,9.49-12.37,30-16.13,37.08-9.87,6.91,6.09,8,20.22-4.11,44C168,298.9,198.19,303.36,195.31,321.84Z"/><path class="cls-1" d="M132.91,362.74c-12.1,20.89-51.27,29.9-74,15.91-18.49-11.37-21.21-41.41-25.89-101-3-38,.2-32.1-.87-115-.67-52.1-2.16-72.49,11.11-98a117.08,117.08,0,0,1,33.05-39C121.12-8.26,174.6,3.1,187.32,5.8c11.7,2.49,24.19,5.28,37,15,23.45,17.89,28.75,44.54,29.94,51,3.89,21.16-1.44,37.57-8.06,58-5.22,16.07-9.34,27.85-18,37-28.79,30.17-90,10.57-95,8.9h0c.21.11-11.86,22.49-16,33-5.63,14.1-5.08,26.92,4.91,76C134.4,345.6,139,352.32,132.91,362.74Z"/><path class="cls-2" d="M124,140.1c-24.89,3.59-41-25.39-20.44-55.56C136,36.9,190.39,40.12,212.36,55.06c26.53,18.06,21,64.3-37.46,50.77C149.07,99.84,144.49,137.14,124,140.1Z"/><path class="cls-1" d="M696.76,345.68c-23,6.11-62.26,24-73.9-19.89-12.54-47.22,23.6-76.88,46.6-83s54.45,37.21,59.61,56.65S719.76,339.58,696.76,345.68Z"/><path class="cls-2" d="M669.82,322c-7.89.42-19.72-5.55-19.44-14.08.74-22.47,20.43-32.73,31.4-32.37,7.15.24,12.86,5.12,12.94,10.77.11,7.59-14.14,14.55-14.74,13.78s13-14.85,15.13-13.34C697.91,288.72,687,321.08,669.82,322Z"/><path class="cls-1" d="M778.82,286.49c16.9-3.36,30.68,4.58,35,12,6.62,11.5-5.55,28.73-25.79,13.72-5-3.68-10.19-1.06-15.36,1.62,0,32.66,23.45,59.26,6.4,82.32-1,1.42-9.88,13.07-19.93,11.93-17.08-1.93-27.59-39.67-29.86-64.57C724.09,286.61,754.51,214,802,205.23c17-3.15,39.09,1.41,42.4,11.85C849.93,234.46,797.19,248.06,778.82,286.49Z"/><path class="cls-1" d="M1224.11,353.74c0,1.93-3.13,32.07-19.77,36-8.49,2-20.07-2.93-23.23-11-5-12.72,14.8-23.36,11-41a27.59,27.59,0,0,0-16-19c-11.24-4.47-22.07,2.15-29.91,5.68,2.52,17.23,3.9,32.68-4.92,50.94-2.65,5.48-6.66,13.26-11.6,13.39-10.73.28-21.75-28.25-22.38-78.29-1-80.43,26.92-164.21,48.5-163,7.91.45,14.31,12.37,16.31,20.24,3.82,15.05-5.65,26.19-15,49a239.93,239.93,0,0,0-13,47,138.18,138.18,0,0,0-1.78,22.91c4.72-8.52,11.37-15,19.56-15C1203.78,271.64,1224.11,324,1224.11,353.74Z"/><path class="cls-1" d="M1469.28,379.88c-2.8,3.95-8.53,7.05-16.73,7.37-26.66,1-40.35-17.8-40.77-28.77-.51-13.25,18.29-22.83,29.21-.13,2.76,5.74,8.91,5.68,14.93,5.71a15.74,15.74,0,0,0,2.54-3.31c3.75-6.49,1.79-13.32,1.4-19.58-4.12-.34-4.55-1.36-13.31-3.63-11.72-3-12.8-1.67-16.64-4-4.89-3-10.59-9.82-9.8-17.6h0c-.53-4.92,1.94-11.17,8.34-16.76,20.1-17.55,42.58-11.5,49.8-3.22,4.63,5.3,3.76,15.24-.11,17.68-5.52,3.47-13.75-10.2-24.68-7.86-4.7,1-7.82,4.53-10.65,8.26a33.6,33.6,0,0,0,6.59,3.33c13.21,5.6,19.24,5.41,24.15,9.62,5.14,1.82,9.67,8.11,10.12,18C1484.43,361.71,1477.36,373.37,1469.28,379.88Z"/><ellipse class="cls-2" cx="40.61" cy="243.75" rx="21.5" ry="31"/><ellipse class="cls-2" cx="967.51" cy="337.04" rx="23.43" ry="37.97" transform="translate(1.23 677.58) rotate(-38.62)"/><ellipse class="cls-3" cx="89.11" cy="333.25" rx="19" ry="10.5"/><ellipse class="cls-3" cx="117.11" cy="28.54" rx="10.5" ry="10.71"/><ellipse class="cls-3" cx="82.51" cy="64.1" rx="10.96" ry="13.72" transform="translate(-14.26 103.5) rotate(-60)"/><ellipse class="cls-3" cx="70.11" cy="153.75" rx="9" ry="24"/><ellipse class="cls-3" cx="1044.61" cy="61.75" rx="18.5" ry="13"/><ellipse class="cls-3" cx="964.11" cy="196.25" rx="13" ry="23.5"/><ellipse class="cls-3" cx="165.61" cy="149.75" rx="10.5" ry="10"/><ellipse class="cls-3" cx="99.61" cy="309.75" rx="5.5" ry="5"/><ellipse class="cls-3" cx="174.61" cy="248.75" rx="5.5" ry="5"/><ellipse class="cls-3" cx="160.61" cy="283.75" rx="5.5" ry="5"/><ellipse class="cls-3" cx="226.61" cy="324.75" rx="5.5" ry="5"/><ellipse class="cls-3" cx="220.11" cy="290.25" rx="3" ry="2.5"/><ellipse class="cls-3" cx="455.61" cy="332.75" rx="5.5" ry="5"/><ellipse class="cls-3" cx="176.11" cy="314.75" rx="7" ry="8"/><ellipse class="cls-3" cx="253.11" cy="348.75" rx="7" ry="8"/><ellipse class="cls-3" cx="351.11" cy="263.75" rx="7" ry="8"/><ellipse class="cls-3" cx="428.11" cy="295.75" rx="7" ry="8"/><ellipse class="cls-3" cx="657.11" cy="339.75" rx="7" ry="8"/><ellipse class="cls-3" cx="750.11" cy="335.75" rx="7" ry="8"/><ellipse class="cls-3" cx="714.11" cy="298.75" rx="7" ry="8"/><ellipse class="cls-3" cx="768.11" cy="374.75" rx="7" ry="8"/><ellipse class="cls-3" cx="752.11" cy="388.75" rx="7" ry="8"/><ellipse class="cls-3" cx="797.61" cy="231.75" rx="12.5" ry="7"/><ellipse class="cls-3" cx="650.11" cy="273.75" rx="7" ry="8"/><ellipse class="cls-3" cx="793.11" cy="301.75" rx="7" ry="8"/><ellipse class="cls-3" cx="1127.94" cy="340.15" rx="13.16" ry="11.39"/><ellipse class="cls-3" cx="1145.44" cy="193.15" rx="9.66" ry="13.39"/><ellipse class="cls-3" cx="1130.44" cy="230.65" rx="9.66" ry="6.89"/><ellipse class="cls-3" cx="1165.44" cy="300.65" rx="9.66" ry="6.89"/><ellipse class="cls-3" cx="1165.44" cy="296.65" rx="9.66" ry="6.89"/><ellipse class="cls-3" cx="1205.44" cy="366.65" rx="9.66" ry="6.89"/><ellipse class="cls-3" cx="1207.14" cy="338.93" rx="6.77" ry="11.03" transform="translate(-44.23 417.31) rotate(-19.27)"/><ellipse class="cls-3" cx="788.44" cy="249.65" rx="3.66" ry="3.89"/><ellipse class="cls-3" cx="685.11" cy="260.25" rx="7" ry="3.5"/><circle class="cls-3" cx="335.11" cy="343.75" r="5"/><ellipse class="cls-3" cx="324.11" cy="311.75" rx="7" ry="8"/><ellipse class="cls-3" cx="225.11" cy="276.75" rx="7" ry="8"/><ellipse class="cls-3" cx="335.11" cy="270.75" rx="7" ry="4"/><ellipse class="cls-3" cx="473.11" cy="341.75" rx="7" ry="4"/><ellipse class="cls-3" cx="1121.11" cy="314.75" rx="7" ry="4"/><ellipse class="cls-3" cx="757.11" cy="318.75" rx="7" ry="4"/><ellipse class="cls-3" cx="357.11" cy="347.75" rx="7" ry="4"/><ellipse class="cls-3" cx="637.11" cy="289.75" rx="7" ry="4"/><ellipse class="cls-3" cx="380.11" cy="331.75" rx="7" ry="4"/><ellipse class="cls-3" cx="422.11" cy="313.75" rx="7" ry="4"/><ellipse class="cls-3" cx="1062.61" cy="325.25" rx="6.5" ry="11.5"/><ellipse class="cls-3" cx="1426.11" cy="363.25" rx="5" ry="9.5"/><ellipse class="cls-3" cx="1513.61" cy="361.25" rx="6.5" ry="11.5"/><ellipse class="cls-3" cx="1435.61" cy="307.25" rx="6.5" ry="5.5"/><ellipse class="cls-3" cx="1463.61" cy="333.25" rx="3.5" ry="5.5"/><ellipse class="cls-3" cx="1309.61" cy="305.25" rx="1.5" ry="2.5"/><ellipse class="cls-3" cx="1043.61" cy="335.25" rx="1.5" ry="2.5"/><ellipse class="cls-3" cx="1567.61" cy="376.25" rx="1.5" ry="2.5"/><ellipse class="cls-3" cx="1437.61" cy="363.25" rx="1.5" ry="2.5"/><ellipse class="cls-3" cx="1472.61" cy="349.25" rx="5.5" ry="11.5"/><ellipse class="cls-3" cx="1503.61" cy="346.75" rx="2.5" ry="5"/><ellipse class="cls-3" cx="1438.61" cy="374.75" rx="2.5" ry="5"/><ellipse class="cls-3" cx="1258.61" cy="371.25" rx="3.5" ry="5.5"/><ellipse class="cls-3" cx="1340.11" cy="337.75" rx="4" ry="6"/><ellipse class="cls-3" cx="1044.11" cy="307.75" rx="11" ry="14"/><ellipse class="cls-3" cx="1247.11" cy="356.25" rx="7" ry="12.5"/><ellipse class="cls-3" cx="1004.11" cy="100.25" rx="7" ry="12.5"/><ellipse class="cls-3" cx="1076.11" cy="89.25" rx="7" ry="12.5"/><ellipse class="cls-3" cx="1548.26" cy="377.93" rx="5.86" ry="14.27" transform="translate(995.32 1872.65) rotate(-83.42)"/><ellipse class="cls-3" cx="1344.11" cy="316.75" rx="7" ry="9"/><ellipse class="cls-3" cx="949.11" cy="231.75" rx="7" ry="9"/><ellipse class="cls-3" cx="1356.36" cy="373.5" rx="8.75" ry="6.75"/><ellipse class="cls-3" cx="1372.86" cy="377" rx="3.25" ry="5.25"/><ellipse class="cls-3" cx="1241.86" cy="308" rx="3.25" ry="5.25"/><ellipse class="cls-3" cx="1301.44" cy="294.65" rx="2.3" ry="7.55" transform="translate(902.3 1567.94) rotate(-85.35)"/><ellipse class="cls-3" cx="1510.44" cy="320.65" rx="2.3" ry="7.55" transform="translate(1068.45 1800.14) rotate(-85.35)"/><ellipse class="cls-3" cx="1297.92" cy="304.54" rx="2.12" ry="4.03" transform="translate(889.21 1573.51) rotate(-85.35)"/><ellipse class="cls-3" cx="1538.92" cy="317.54" rx="2.12" ry="4.03" transform="translate(1097.72 1825.67) rotate(-85.35)"/><ellipse class="cls-2" cx="747.61" cy="242.75" rx="16.5" ry="19"/><ellipse class="cls-2" cx="1009.79" cy="147.29" rx="19.5" ry="23.73" transform="translate(84.32 577.26) rotate(-33.22)"/></svg>