<svg xmlns="http://www.w3.org/2000/svg" width="223.041" height="229.77" viewBox="0 0 223.041 229.77"><g transform="translate(-6.917 -6.986)"><path d="M53.317,75.71l-3.789-2.759a4.2,4.2,0,0,0,.919-.945c.939-1.288.591-2.482-1.151-3.752L28.95,53.431,31.3,50.21,51.528,64.95c4.358,3.175,5.332,6.216,3.029,9.378A7.454,7.454,0,0,1,53.317,75.71Z" fill="#0800d9"/><path d="M53.129,62.768,35.056,45.437l2.757-2.877L56.157,60.151c1.693,1.623,2.828,1.658,3.7.742s.8-2.049-.9-3.671L40.622,39.631l2.657-2.772L61.352,54.19c3.791,3.635,4.552,7.177,1.845,10S56.919,66.4,53.129,62.768Z" fill="#0800d9"/><path d="M48.31,32.492l3.165-2.421L68.559,52.419l5.209-3.982,2.847,3.725-8.375,6.4Z" fill="#0800d9"/><path d="M60.672,23.631l3.415-2.052,16.9,28.133-3.415,2.054Z" fill="#0800d9"/><path d="M69.268,18.667l9.915-4.459,1.922,4.275-6.279,2.824,3.557,7.91,4.991-2.244L85.3,31.249l-4.99,2.244,4.133,9.192,6.28-2.824,1.923,4.275L82.727,48.6Z" fill="#0800d9"/><path d="M96.9,34.874,93.534,17.569c-.968-4.97.451-8.3,4.222-9.037s6.335,1.822,7.3,6.793l.662,3.4-3.7.721-.725-3.728c-.411-2.117-1.364-2.839-2.538-2.61s-1.786,1.255-1.374,3.372l3.5,17.994c.412,2.117,1.356,2.793,2.529,2.564s1.8-1.209,1.384-3.326l-.959-4.924,3.7-.72.887,4.555c.968,4.971-.451,8.3-4.222,9.039S97.869,39.843,96.9,34.874Z" fill="#0800d9"/><path d="M113.25,7.111l5.4-.125L123.535,39.7l-3.984.091-.875-6.5,0,.094-4.528.106-.576,6.438-3.695.086ZM118.1,28.948l-2.15-16.177h-.072l-1.364,16.259Z" fill="#0800d9"/><path d="M129.77,7.293l5.6,1.014-1.694,23.562.071.012,6.685-22.658,5.6,1.014-5.852,32.289-3.707-.672L140.9,17.407l-.072-.013L133.54,41.326l-3.279-.6,1.581-24.963-.071-.013L127.339,40.2l-3.422-.619Z" fill="#0800d9"/><path d="M152.592,12.485l3.76,1.32L145.479,44.769l-3.76-1.318Z" fill="#0800d9"/><path d="M161.786,15.9l3.583,1.744-12.305,25.3,5.9,2.87-2.051,4.216-9.479-4.613Z" fill="#0800d9"/><path d="M176.011,23.359,179.3,25.6,163.465,48.848l5.419,3.694-2.64,3.874-8.712-5.937Z" fill="#0800d9"/><path d="M191.62,35.142l3.936,3.7L176.094,65.583l-2.906-2.73,3.935-5.245-.064.068-3.3-3.1-4.927,4.183-2.693-2.53ZM179.766,54.109l9.813-13.037-.053-.05L177.15,51.652Z" fill="#0800d9"/><path d="M207.058,51.892l3.278,4.87c2.226,3.307.945,6.528-3.411,9.46l-2.684,1.807c-4.356,2.932-7.821,2.906-10.047-.4l-1.051-1.563-11.085,7.463-2.227-3.307ZM198.084,65.01c.708,1.052,1.715,1.2,3.659-.105l3.229-2.173c1.944-1.31,2.182-2.3,1.474-3.352l-1.052-1.563-8.363,5.63Z" fill="#0800d9"/><path d="M216.493,66.851l4.66,9.818-4.236,2.012-2.951-6.219-7.837,3.72,2.346,4.943-4.236,2.011-2.345-4.942-9.108,4.323,2.952,6.219L191.5,90.748l-4.66-9.82Z" fill="#0800d9"/><path d="M219.676,86.53l-1.229-3.982,4.481-1.382,3.632,11.771-4.481,1.383-1.228-3.982-26.88,8.3L192.8,94.825Z" fill="#0800d9"/><path d="M227.72,98.272l1.7,10.735-4.631.732-1.076-6.8-8.567,1.355.855,5.4-4.631.733-.855-5.4-9.956,1.576,1.075,6.8-4.631.733L195.3,103.4Z" fill="#0800d9"/><path d="M229.865,114.651l.092,5.9c.064,4.13-2.393,5.943-7.455,6.022l-2.016.031c-3.375.053-5.544-.746-6.508-2.506h-.094c-.767,2.005-3.194,2.7-6.9,2.752l-5.765.091a12.286,12.286,0,0,0-3.978.5l-.063-4.057a12.812,12.812,0,0,1,4.025-.425l6-.094c3.047-.048,4.021-.752,3.992-2.562l-.021-1.377-14.063.219-.061-3.984Zm-13.978,5.654c.023,1.485.882,2.378,3.507,2.337l2.531-.04c2.344-.037,3.365-.669,3.343-2.081l-.029-1.812-9.375.146Z" fill="#0800d9"/><path d="M204.843,129.087l1.857.262-.525,3.73-2.229-.313c-2.32-.327-3.267.345-3.444,1.6s.548,2.162,2.962,2.5c2.692.379,4.52-.169,7.808-2.34,4.225-2.771,7.022-3.475,10.736-2.953,5.105.719,7.788,3.182,7.248,7.02s-3.779,5.322-8.978,4.591l-1.346-.19.525-3.731,1.671.235c2.321.327,3.3-.267,3.481-1.522s-.6-2.1-2.833-2.411c-2.367-.333-4.2.25-7.488,2.422-4.225,2.772-6.971,3.446-11.009,2.878-5.291-.745-7.969-3.243-7.424-7.118S199.645,128.355,204.843,129.087Z" fill="#0800d9"/><path d="M226.7,150.041l-3.039,10.437-4.5-1.311,1.926-6.609-8.328-2.426-1.529,5.254-4.5-1.311,1.53-5.254L198.574,146l-1.925,6.609-4.5-1.31,3.041-10.437Z" fill="#0800d9"/><path d="M221.5,166.283l-2.129,4.524-19.425-4.856-.031.066,17.775,8.362-1.512,3.212L186.481,163.62l1.744-3.7,23.713,5.872.031-.065-21.677-10.2,1.512-3.211Z" fill="#0800d9"/><path d="M183.079,168.893l3.754,2.807a4.162,4.162,0,0,0-.931.933c-.955,1.276-.622,2.474,1.105,3.766l20.157,15.077-2.387,3.191-20.045-14.993c-4.316-3.229-5.253-6.281-2.909-9.414A7.448,7.448,0,0,1,183.079,168.893Z" fill="#0800d9"/><path d="M183.107,181.831l17.845,17.551-2.795,2.842-18.112-17.815c-1.671-1.643-2.806-1.692-3.694-.788s-.822,2.038.849,3.682l18.112,17.814-2.694,2.738L174.774,190.3c-3.743-3.681-4.459-7.232-1.714-10.021S179.364,178.149,183.107,181.831Z" fill="#0800d9"/><path d="M187.548,212.161l-3.2,2.381-16.8-22.559-5.262,3.916-2.8-3.759,8.459-6.3Z" fill="#0800d9"/><path d="M175.021,220.894l-3.445,2.005L155.063,194.54l3.444-2Z" fill="#0800d9"/><path d="M166.383,225.733l-9.97,4.322-1.864-4.3,6.314-2.737-3.45-7.957-5.018,2.174-1.865-4.3,5.019-2.175-4.009-9.248-6.314,2.736-1.866-4.3,9.971-4.321Z" fill="#0800d9"/><path d="M138.946,209.16l3.127,17.35c.9,4.983-.566,8.3-4.346,8.977s-6.31-1.913-7.207-6.9l-.616-3.414,3.708-.668.674,3.737c.383,2.123,1.325,2.858,2.5,2.647s1.8-1.231,1.421-3.353L134.957,209.5c-.383-2.123-1.316-2.812-2.493-2.6s-1.812,1.184-1.43,3.306l.891,4.938-3.709.668-.823-4.569c-.9-4.983.566-8.3,4.346-8.976S138.048,204.177,138.946,209.16Z" fill="#0800d9"/><path d="M122.469,236.665l-5.4.091-4.684-32.743,3.984-.068.835,6.5,0-.094,4.528-.076.616-6.434,3.695-.063ZM117.75,214.8l2.05,16.188h.072l1.465-16.248Z" fill="#0800d9"/><path d="M105.75,236.295l-5.582-1.09,2.007-23.542-.071-.015L95.12,234.219l-5.582-1.09,6.28-32.214,3.7.722-4.755,24.39.071.014,7.6-23.835,3.27.639-1.911,24.946.071.014,4.755-24.391,3.413.667Z" fill="#0800d9"/><path d="M83.02,230.794l-3.743-1.37,11.28-30.815,3.742,1.37Z" fill="#0800d9"/><path d="M73.852,227.251l-3.56-1.791,12.635-25.131-5.859-2.947,2.106-4.189,9.418,4.738Z" fill="#0800d9"/><path d="M59.73,219.61l-3.264-2.286,16.14-23.034-5.371-3.762,2.69-3.839,8.637,6.047Z" fill="#0800d9"/><path d="M44.283,207.646,40.4,203.9l19.8-26.5,2.871,2.765-4,5.2.065-.067,3.262,3.142,4.978-4.124,2.661,2.563Zm12.094-18.82L46.4,201.741l.052.051L58.96,191.314Z" fill="#0800d9"/><path d="M29.054,190.685l-3.216-4.91c-2.184-3.333-.863-6.537,3.528-9.415l2.706-1.772c4.393-2.878,7.857-2.81,10.04.524l1.033,1.576,11.175-7.324,2.185,3.334Zm9.136-13c-.694-1.061-1.7-1.226-3.66.059l-3.255,2.133c-1.961,1.284-2.211,2.272-1.515,3.332l1.032,1.576,8.431-5.524Z" fill="#0800d9"/><path d="M19.8,175.6l-4.537-9.878,4.26-1.958,2.873,6.257L30.28,166.4,28,161.423l4.261-1.957,2.283,4.972,9.159-4.209-2.873-6.256,4.261-1.958,4.536,9.879Z" fill="#0800d9"/><path d="M16.868,155.892l1.18,4-4.5,1.326L10.064,149.4l4.5-1.326,1.178,4,26.982-7.956,1.127,3.823Z" fill="#0800d9"/><path d="M8.98,144.069,7.415,133.312l4.639-.676.991,6.813,8.582-1.251-.788-5.414,4.639-.677.788,5.415,9.972-1.453-.991-6.813,4.639-.676,1.565,10.758Z" fill="#0800d9"/><path d="M6.917,127.042l.092-5.9c.064-4.13,2.576-5.867,7.638-5.787l2.016.032c3.375.053,5.519.919,6.429,2.709h.094c.827-1.98,3.275-2.594,6.978-2.535l5.766.089a12.282,12.282,0,0,0,3.991-.373l-.064,4.058a12.857,12.857,0,0,1-4.037.3l-6-.094c-3.047-.047-4.042.626-4.07,2.437l-.021,1.377,14.062.219-.062,3.985Zm14.146-5.214c.024-1.485-.805-2.4-3.43-2.445l-2.531-.039c-2.344-.037-3.385.563-3.408,1.975l-.028,1.812,9.375.146Z" fill="#0800d9"/><path d="M32.215,113.534l-1.854-.283.57-3.725,2.224.34c2.318.356,3.272-.3,3.464-1.558s-.522-2.169-2.931-2.538c-2.689-.412-4.524.114-7.837,2.245-4.258,2.72-7.064,3.39-10.771,2.822-5.1-.78-7.751-3.275-7.165-7.108s3.842-5.275,9.032-4.481l1.344.206-.569,3.725-1.668-.256c-2.318-.355-3.308.226-3.5,1.48s.579,2.105,2.8,2.446c2.364.361,4.2-.2,7.518-2.331,4.258-2.72,7.012-3.362,11.043-2.745,5.283.81,7.931,3.34,7.34,7.208S37.4,114.329,32.215,113.534Z" fill="#0800d9"/><path d="M10.625,92.295,13.793,81.9l4.484,1.367-2.006,6.584,8.3,2.529,1.6-5.232,4.484,1.367-1.594,5.233,9.642,2.94L40.7,90.1l4.485,1.367-3.168,10.4Z" fill="#0800d9"/><path d="M16.01,76.147l2.183-4.5,19.365,5.093.032-.066L19.918,68.1,21.469,64.9,50.991,79.236,49.2,82.919l-23.64-6.162-.032.066L47.083,87.287l-1.551,3.194Z" fill="#0800d9"/></g></svg>