<svg xmlns="http://www.w3.org/2000/svg" width="254.67" height="237.121" viewBox="0 0 254.67 237.121"><g transform="translate(-284.872 -191.282)"><g transform="translate(287.551 193.828)"><path d="M137.483,300.794c-3.381-16.806-6.212-36.2,4.22-49.532,2.492-3.184,5.8-5.889,9.692-6.64C165,242,176.235,263.3,189.158,258.169c3.85-1.53,6.5-5.125,9.373-8.189,11.926-12.706,31.066-17.513,47.276-11.875s28.684,21.442,30.811,39.035c.676,5.594.441,11.508,2.908,16.532,1.695,3.452,4.526,6.152,7.476,8.528,7.157,5.763,15.317,10.057,22.589,15.664s13.86,12.979,15.9,22.133-1.812,20.159-10.262,23.552c-3.919,1.574-8.456,1.463-12.005,3.8-2.793,1.838-4.577,4.965-5.717,8.186-3.611,10.2-1.625,21.474-.612,32.293s.6,22.9-6.506,30.891c-8.736,9.835-23.8,9.4-36.327,6.249s-25.358-8.305-37.93-5.334c-8.7,2.057-16.093,7.78-23.631,12.74-14.526,9.557-31.361,16.832-48.5,15.257s-34.148-14.094-36.9-31.7c-1.8-11.49,2.4-23.68-1.181-34.711-2.5-7.693-8.393-13.564-13.651-19.578-5.891-6.738-11.295-14.2-14-22.856s-2.376-18.7,2.567-26.209c6.963-10.582,20.471-13.43,32.415-16.705s25.3-9.791,27.665-22.365" transform="translate(-76.582 -235.77)" fill="#fff" stroke="#fff" stroke-miterlimit="10" stroke-width="5"/></g></g></svg>